<?xml version="1.0" encoding="UTF-8" standalone="no"?>
<svg
   xmlns:dc="http://purl.org/dc/elements/1.1/"
   xmlns:cc="http://creativecommons.org/ns#"
   xmlns:rdf="http://www.w3.org/1999/02/22-rdf-syntax-ns#"
   xmlns:svg="http://www.w3.org/2000/svg"
   xmlns="http://www.w3.org/2000/svg"
   viewBox="0 0 747.58667 231.67999"
   height="231.67999"
   width="747.58667"
   xml:space="preserve"
   id="svg2"
   version="1.1"><metadata
     id="metadata8"><rdf:RDF><cc:Work
         rdf:about=""><dc:format>image/svg+xml</dc:format><dc:type
           rdf:resource="http://purl.org/dc/dcmitype/StillImage" /></cc:Work></rdf:RDF></metadata><defs
     id="defs6" /><g
     transform="matrix(1.3333333,0,0,-1.3333333,0,231.68)"
     id="g10"><g
       transform="scale(0.1)"
       id="g12"><path
         id="path14"
         style="fill:#a62a1e;fill-opacity:1;fill-rule:nonzero;stroke:none"
         d="M 214.148,554.539 H 47.3516 V 424.051 H 185.281 V 383.68 H 47.3516 V 213.41 H 0.015625 V 594.34 H 214.148 v -39.801" /><path
         id="path16"
         style="fill:#a62a1e;fill-opacity:1;fill-rule:nonzero;stroke:none"
         d="M 472.422,213.379 H 253.051 V 594.34 H 467.188 V 554.539 H 300.391 V 427.578 H 438.316 V 387.719 H 300.391 V 253.25 h 172.031 v -39.871" /><path
         id="path18"
         style="fill:#a62a1e;fill-opacity:1;fill-rule:nonzero;stroke:none"
         d="m 803.008,343.852 c 0,-47.313 -14.668,-82.723 -43.938,-106.18 -28.379,-23.5 -63.289,-35.203 -104.367,-35.203 -40.777,0 -76.047,11.922 -105.695,35.801 -29.219,23.449 -43.82,58.679 -43.82,105.582 V 594.34 h 47.273 V 358.289 c 0,-24.277 1.422,-41.117 4.07,-50.769 3.137,-10.801 9.016,-20.782 17.864,-29.989 19.664,-21.992 46.246,-32.902 79.699,-32.902 33.461,0 60.008,10.91 79.672,32.902 8.851,9.207 14.824,19.188 17.879,29.989 2.679,9.652 3.98,26.492 3.98,50.769 V 594.34 h 47.383 V 343.852" /><path
         id="path20"
         style="fill:#a62a1e;fill-opacity:1;fill-rule:nonzero;stroke:none"
         d="m 1063.56,478.949 c 0,25.391 -7.1,45.16 -21.35,59.422 -10.73,10.777 -30.32,16.168 -58.894,16.168 H 918.145 V 397.52 c 21.14,-2.27 38.003,-3.43 50.796,-3.43 21.504,0 38.079,2.519 49.599,7.48 13.9,5.801 24.8,15.539 32.92,29.16 8.13,13.692 12.1,29.77 12.1,48.219 m 49.06,2.84 c 0,-19.59 -3.2,-37.367 -9.49,-53.398 -6.41,-15.95 -15.41,-29.512 -27.18,-40.672 -11.71,-11.137 -25.95,-19.68 -42.71,-25.688 -16.67,-5.922 -35.463,-8.91 -56.263,-8.91 -4.997,0 -12.391,0.41 -22.247,1.129 -9.824,0.789 -22.031,1.98 -36.585,3.48 V 213.379 H 870.824 V 594.34 h 119.465 c 42.371,0 73.271,-9.988 92.931,-29.988 19.6,-20.024 29.4,-47.493 29.4,-82.563" /><path
         id="path22"
         style="fill:#231f20;fill-opacity:1;fill-rule:nonzero;stroke:none"
         d="m 1460.55,79.6016 c 0,-26.6133 -8.26,-46.543 -24.77,-59.7227 C 1419.8,6.64844 1400.22,0 1377,0 c -22.95,0 -42.75,6.71875 -59.44,20.1914 -16.51,13.1992 -24.67,32.9805 -24.67,59.4102 V 220.629 h 26.56 V 87.7305 c 0,-13.6407 0.82,-23.1719 2.37,-28.5703 1.67,-6.0118 5.03,-11.7305 10.07,-16.8985 11.01,-12.3633 25.9,-18.5117 44.79,-18.5117 18.86,0 33.79,6.1484 44.89,18.5117 4.98,5.168 8.26,10.8867 9.98,16.8985 1.55,5.3984 2.32,14.9296 2.32,28.5703 V 220.629 h 26.68 V 79.6016" /><path
         id="path24"
         style="fill:#231f20;fill-opacity:1;fill-rule:nonzero;stroke:none"
         d="m 1701.4,4.19922 h -30.91 L 1562.32,171.609 c -0.43,0.871 -1.04,1.852 -1.79,3.071 -0.71,1.23 -1.54,2.601 -2.4,4.359 -1.57,2.57 -3.51,6.961 -5.89,12.981 V 6.19141 h -26.65 V 220.629 h 34.76 L 1666.63,57.2383 c 0.59,-1.1289 1.14,-1.9766 1.61,-2.6485 0.48,-0.6679 0.86,-1.4414 1.29,-2.4296 0.42,-0.9688 0.96,-2.211 1.45,-3.7618 0.52,-1.4375 1.32,-3.5468 2.46,-6.1679 0.19,-0.4102 0.41,-0.8203 0.47,-1.2617 0.03,-0.4102 0.36,-1.0704 0.82,-1.9493 V 220.629 h 26.67 V 4.19922" /><path
         id="path26"
         style="fill:#231f20;fill-opacity:1;fill-rule:nonzero;stroke:none"
         d="m 1771.92,6.21094 h 26.58 V 220.672 h -26.58 V 6.21094" /><path
         id="path28"
         style="fill:#231f20;fill-opacity:1;fill-rule:nonzero;stroke:none"
         d="M 2020.7,220.629 1937.52,0.671875 h -16.23 L 1836.76,220.629 h 28.61 l 63.41,-167.3087 c 0.99,-2.832 1.79,-6.3008 2.28,-10.4414 0,3.3203 0.58,6.7305 1.94,10.4414 l 61.04,167.3087 h 26.66" /><path
         id="path30"
         style="fill:#231f20;fill-opacity:1;fill-rule:nonzero;stroke:none"
         d="M 2182.78,6.19141 H 2059.32 V 220.672 h 120.52 v -22.453 h -93.87 V 126.68 h 77.66 v -22.352 h -77.66 V 28.6484 h 96.81 V 6.19141" /><path
         id="path32"
         style="fill:#231f20;fill-opacity:1;fill-rule:nonzero;stroke:none"
         d="m 2338.45,162.5 c 0,13.379 -3.88,23.281 -11.65,29.52 -5.07,4.14 -15.44,6.23 -31.23,6.23 h -34.77 v -77.719 h 34.77 c 28.55,0 42.88,14 42.88,41.969 M 2379.09,6.19141 H 2348.5 L 2289.37,98.1719 H 2260.8 V 6.19141 h -26.65 V 220.629 h 65.29 c 6.5,0 12.21,-0.25 17.06,-0.809 4.84,-0.539 9.26,-1.39 13.17,-2.601 3.88,-1.188 7.49,-2.797 10.73,-4.918 3.19,-1.981 6.46,-4.539 9.79,-7.59 11.2,-11.031 16.82,-25.012 16.82,-41.871 0,-17.801 -6.28,-32.621 -18.86,-44.539 -8.18,-8.039 -19.06,-13.43 -32.47,-16.25 l 63.41,-95.85959" /><path
         id="path34"
         style="fill:#231f20;fill-opacity:1;fill-rule:nonzero;stroke:none"
         d="m 2544.34,206.391 -12.26,-22.121 c -4.79,2.75 -8.98,5.152 -12.76,6.96 -3.58,1.829 -6.91,3.2 -9.69,4.11 -9.79,2.949 -19.6,4.512 -29.58,4.512 -12.3,0 -22.21,-2.774 -29.7,-8.262 -7.46,-5.52 -11.24,-12.871 -11.24,-21.918 0,-8.051 3.41,-15.012 10.13,-20.781 6.65,-5.911 20.99,-14.731 42.89,-26.411 15.14,-7.96 26.39,-15.261 33.78,-21.75 11.04,-9.5308 16.57,-22.5191 16.57,-38.9487 0,-18.4102 -6.34,-33.0625 -19.07,-43.711 -12.64,-10.71874 -29.77,-16.10936 -51.46,-16.10936 -14.73,0 -28.01,2.42969 -39.69,7.1875 C 2425.61,11.6992 2416.3,17 2404.68,25.0703 l 13.65,21.1094 c 5.02,-3.5078 9.56,-6.4414 13.8,-8.8086 4.23,-2.332 7.81,-4.1328 10.95,-5.1719 9.68,-3.7304 20.02,-5.5586 30.81,-5.5586 12.98,0 22.99,2.8594 30.06,8.4883 7.07,5.6211 10.53,13.6328 10.53,24 0,6.5 -1.05,11.6094 -3.26,15.2422 -3.89,7.1875 -9.98,13.0508 -18.16,17.6289 -2.59,1.4805 -6.81,3.8086 -12.79,6.9688 -6.03,3.1092 -13.59,7.1522 -22.98,12.1722 -30.48,16.5 -45.74,35.218 -45.74,56.191 0,17.129 6.44,30.887 19.49,41.359 12.9,10.309 30.12,15.539 51.27,15.539 13.67,0 25.63,-1.75 36.14,-5.23 7.04,-2.352 15.78,-6.621 25.89,-12.609" /><path
         id="path36"
         style="fill:#231f20;fill-opacity:1;fill-rule:nonzero;stroke:none"
         d="m 2597.28,6.21094 h 26.65 V 220.672 h -26.65 V 6.21094" /><path
         id="path38"
         style="fill:#231f20;fill-opacity:1;fill-rule:nonzero;stroke:none"
         d="m 2846.38,114.73 c 0,23.559 -8.03,43.418 -24.11,59.45 -15.99,16.05 -36.01,24.07 -60.12,24.07 h -40.6 V 28.6484 h 40.6 c 26.25,0 45.53,6.4532 57.93,19.4414 3.9,4.129 7.49,8.8399 10.73,14.1915 3.15,5.1992 5.92,10.8789 8.26,16.6796 2.25,5.8477 4.07,11.8282 5.36,17.8594 1.27,6.0897 1.95,12.0777 1.95,17.9097 m 27.91,-0.339 c 0,-28.9926 -9.65,-54.6605 -28.85,-77.0199 -9.76,-11.2891 -20.78,-19.2422 -33.11,-23.9922 -12.14,-4.78906 -27.62,-7.18749 -46.22,-7.18749 h -71.2 V 220.629 h 71.56 c 31.16,0 56.94,-9.957 77.33,-29.859 20.31,-19.739 30.49,-45.231 30.49,-76.379" /><path
         id="path40"
         style="fill:#231f20;fill-opacity:1;fill-rule:nonzero;stroke:none"
         d="m 3021.85,93.9492 -34.69,98.1018 -35.12,-98.1018 z m 59.17,-87.75779 h -28.57 l -22.14,63.32809 h -86.73 L 2921.51,6.19141 h -28.64 l 79.92,220.61759 h 28.56 L 3081.02,6.19141" /><path
         id="path42"
         style="fill:#231f20;fill-opacity:1;fill-rule:nonzero;stroke:none"
         d="m 3270.36,114.73 c 0,23.559 -8.01,43.418 -24.03,59.45 -16.07,16.05 -36.13,24.07 -60.13,24.07 h -40.65 V 28.6484 h 40.65 c 26.27,0 45.5,6.4532 57.91,19.4414 3.81,4.129 7.4,8.8399 10.64,14.1915 3.28,5.1992 6.04,10.8789 8.26,16.6796 2.25,5.8477 4.08,11.8282 5.39,17.8594 1.33,6.0897 1.96,12.0777 1.96,17.9097 m 27.91,-0.339 c 0,-28.9926 -9.61,-54.6605 -28.85,-77.0199 -9.84,-11.2891 -20.76,-19.2422 -32.99,-23.9922 -12.3,-4.78906 -27.68,-7.18749 -46.29,-7.18749 h -71.21 V 220.629 h 71.49 c 31.17,0 56.99,-9.957 77.36,-29.859 20.31,-19.739 30.49,-45.231 30.49,-76.379" /><path
         id="path44"
         style="fill:#231f20;fill-opacity:1;fill-rule:nonzero;stroke:none"
         d="M 3473.21,6.19141 H 3349.77 V 220.672 h 120.55 v -22.453 h -93.99 V 126.68 h 77.64 v -22.352 h -77.64 V 28.6484 h 96.88 V 6.19141" /><path
         id="path46"
         style="fill:#231f20;fill-opacity:1;fill-rule:nonzero;stroke:none"
         d="m 3757.35,114.73 c 0,23.559 -8.07,43.418 -24.02,59.45 -16,16.05 -36.12,24.07 -60.14,24.07 h -40.65 V 28.6484 h 40.65 c 26.21,0 45.55,6.4532 57.83,19.4414 3.91,4.129 7.48,8.8399 10.76,14.1915 3.28,5.1992 5.92,10.8789 8.21,16.6796 2.32,5.8477 4.1,11.8282 5.41,17.8594 1.27,6.0897 1.95,12.0777 1.95,17.9097 m 27.95,-0.339 c 0,-28.9926 -9.65,-54.6605 -28.93,-77.0199 -9.74,-11.2891 -20.64,-19.2422 -32.95,-23.9922 -12.3,-4.78906 -27.69,-7.18749 -46.36,-7.18749 h -71.14 V 220.629 h 71.53 c 31.23,0 56.95,-9.957 77.26,-29.859 20.47,-19.739 30.59,-45.231 30.59,-76.379" /><path
         id="path48"
         style="fill:#231f20;fill-opacity:1;fill-rule:nonzero;stroke:none"
         d="m 4003.72,113.461 c 0,23.75 -7.7,44.379 -23.09,61.699 -15.35,17.328 -33.81,26.02 -55.18,26.02 -21.73,0 -40.19,-8.692 -55.66,-26.02 -15.29,-17.32 -23.07,-37.949 -23.07,-61.699 0,-24.3008 7.78,-45.0821 23.07,-62.4297 15.23,-17.0899 33.75,-25.6407 55.66,-25.6407 21.57,0 40.02,8.5508 55.18,25.6407 15.39,17.3476 23.09,38.1289 23.09,62.4297 m 29.21,0 c 0,-32.2618 -10.15,-58.9297 -30.46,-79.9922 -20.26,-20.9883 -45.86,-31.48052 -77.02,-31.48052 -31.25,0 -57.03,10.49222 -77.42,31.48052 -20.41,21.0625 -30.51,47.7304 -30.51,79.9922 0,32.019 10.1,58.539 30.51,79.578 20.39,21.012 46.17,31.481 77.42,31.481 31.16,0 56.76,-10.469 77.02,-31.481 20.31,-20.559 30.46,-47.148 30.46,-79.578" /><path
         id="path50"
         style="fill:#231f20;fill-opacity:1;fill-rule:nonzero;stroke:none"
         d="m 4274.38,155.641 c 0,14.289 -4.04,25.449 -11.99,33.461 -6.12,6.046 -17.13,9.117 -33.21,9.117 h -36.68 v -88.367 c 11.86,-1.34 21.45,-1.942 28.58,-1.942 12.11,0 21.44,1.399 27.93,4.231 7.83,3.281 14,8.668 18.55,16.347 4.52,7.75 6.82,16.774 6.82,27.153 m 27.62,1.66 c 0,-11.071 -1.8,-21.063 -5.39,-30.102 -3.58,-8.937 -8.68,-16.629 -15.3,-22.871 -6.52,-6.3163 -14.57,-11.0585 -23.96,-14.4764 -9.47,-3.3399 -20.04,-5.043 -31.68,-5.043 -2.83,0 -7.01,0.25 -12.54,0.6523 -5.59,0.4805 -12.36,1.0782 -20.63,1.961 V 6.19141 h -26.71 V 220.629 h 67.3 c 23.87,0 41.29,-5.578 52.29,-16.899 C 4296.45,192.539 4302,177 4302,157.301" /><path
         id="path52"
         style="fill:#231f20;fill-opacity:1;fill-rule:nonzero;stroke:none"
         d="m 4513.29,113.461 c 0,23.75 -7.62,44.379 -23.03,61.699 -15.41,17.328 -33.73,26.02 -55.24,26.02 -21.64,0 -40.19,-8.692 -55.56,-26.02 -15.39,-17.32 -23.09,-37.949 -23.09,-61.699 0,-24.3008 7.7,-45.0821 23.09,-62.4297 15.19,-17.0899 33.73,-25.6407 55.56,-25.6407 21.65,0 40.1,8.5508 55.24,25.6407 15.41,17.3476 23.03,38.1289 23.03,62.4297 m 29.27,0 c 0,-32.2618 -10.15,-58.9297 -30.52,-79.9922 -20.16,-20.9883 -45.8,-31.48052 -77.02,-31.48052 -31.17,0 -56.95,10.49222 -77.34,31.48052 -20.37,21.0625 -30.51,47.7304 -30.51,79.9922 0,32.019 10.14,58.539 30.51,79.578 20.39,21.012 46.17,31.481 77.34,31.481 31.22,0 56.86,-10.469 77.02,-31.481 20.37,-20.559 30.52,-47.148 30.52,-79.578" /><path
         id="path54"
         style="fill:#231f20;fill-opacity:1;fill-rule:nonzero;stroke:none"
         d="m 4698.38,162.5 c 0,13.379 -3.86,23.281 -11.7,29.52 -4.98,4.14 -15.39,6.23 -31.15,6.23 h -34.76 v -77.719 h 34.76 c 28.52,0 42.85,14 42.85,41.969 M 4738.97,6.19141 h -30.53 l -59.16,91.98049 h -28.51 V 6.19141 h -26.74 V 220.629 h 65.33 c 6.54,0 12.25,-0.25 17.07,-0.809 4.82,-0.539 9.32,-1.39 13.16,-2.601 3.89,-1.188 7.5,-2.797 10.73,-4.918 3.26,-1.981 6.54,-4.539 9.8,-7.59 11.25,-11.031 16.86,-25.012 16.86,-41.871 0,-17.801 -6.27,-32.621 -18.93,-44.539 -8.12,-8.039 -19.02,-13.43 -32.34,-16.25 l 63.26,-95.85959" /><path
         id="path56"
         style="fill:#231f20;fill-opacity:1;fill-rule:nonzero;stroke:none"
         d="m 4920.59,198.219 h -71.48 V 6.21094 h -26.62 V 198.219 h -71.53 v 22.41 h 169.63 v -22.41" /><path
         id="path58"
         style="fill:#231f20;fill-opacity:1;fill-rule:nonzero;stroke:none"
         d="m 5125.65,113.461 c 0,23.75 -7.7,44.379 -23.13,61.699 -15.35,17.328 -33.73,26.02 -55.17,26.02 -21.72,0 -40.18,-8.692 -55.59,-26.02 -15.35,-17.32 -23.04,-37.949 -23.04,-61.699 0,-24.3008 7.69,-45.0821 23.04,-62.4297 15.14,-17.0899 33.69,-25.6407 55.59,-25.6407 21.62,0 40.04,8.5508 55.17,25.6407 15.43,17.3476 23.13,38.1289 23.13,62.4297 m 29.3,0 c 0,-32.2618 -10.3,-58.9297 -30.63,-79.9922 -20.1,-20.9883 -45.82,-31.48052 -76.97,-31.48052 -31.23,0 -57.03,10.49222 -77.36,31.48052 -20.36,21.0625 -30.51,47.7304 -30.51,79.9922 0,32.019 10.15,58.539 30.51,79.578 20.33,21.012 46.13,31.481 77.36,31.481 31.15,0 56.87,-10.469 76.97,-31.481 20.33,-20.559 30.63,-47.148 30.63,-79.578" /><path
         id="path60"
         style="fill:#231f20;fill-opacity:1;fill-rule:nonzero;stroke:none"
         d="m 1425.15,559.52 h -92.01 v -55.211 h 75.37 v -34.411 h -75.37 v -90.066 h -40.95 v 214.477 h 132.96 V 559.52" /><path
         id="path62"
         style="fill:#231f20;fill-opacity:1;fill-rule:nonzero;stroke:none"
         d="m 1554.06,467.602 -25.03,77.668 -24.71,-77.668 z m 70.84,-87.77 h -42.85 l -16.93,53.02 h -71.8 l -17.54,-53.02 h -42.89 l 77.63,214.477 h 36.76 l 77.62,-214.477" /><path
         id="path64"
         style="fill:#231f20;fill-opacity:1;fill-rule:nonzero;stroke:none"
         d="m 1815.02,577.762 -15.67,-32.524 c -13.85,10 -30.36,14.981 -49.41,14.981 -20.7,0 -37.71,-6.649 -50.96,-19.899 -13.24,-12.929 -19.82,-29.64 -19.82,-49.98 0,-22.988 7,-41.539 21.14,-55.539 13.84,-13.879 32.63,-20.821 56.17,-20.821 14.53,0 30.21,3.352 47.12,10.032 l 7.49,-34.442 c -11.73,-5.39 -21.35,-8.851 -28.87,-10.34 -5.49,-1.128 -10.99,-1.949 -16.64,-2.582 -5.65,-0.738 -11.59,-0.976 -17.82,-0.976 -32.07,0 -58.01,8.859 -77.64,26.59 -24.06,21.687 -36.14,50.316 -36.14,85.797 0,32.043 10.99,58.793 32.81,80.261 20.42,19.91 47.36,29.879 80.97,29.879 26.61,0 48.98,-6.82 67.27,-20.437" /><path
         id="path66"
         style="fill:#231f20;fill-opacity:1;fill-rule:nonzero;stroke:none"
         d="m 2026.08,463.719 c 0,-19.52 -2.12,-34.598 -6.5,-45.188 -4.29,-10.64 -11.98,-19.722 -23.08,-27.34 -14.86,-10.293 -35.04,-15.519 -60.4,-15.519 -25.35,0 -45.6,5.226 -60.73,15.519 -11.05,7.618 -18.8,16.649 -23.06,27.02 -4.11,10.309 -6.21,25.539 -6.21,45.508 v 130.59 h 40.61 V 461.391 c 0,-31.801 16.91,-47.75 50.72,-47.75 31.81,0 47.7,15.949 47.7,47.75 v 132.918 h 40.95 v -130.59" /><path
         id="path68"
         style="fill:#231f20;fill-opacity:1;fill-rule:nonzero;stroke:none"
         d="m 2207.71,379.832 h -128.73 v 214.477 h 40.95 v -179.7 h 87.78 v -34.777" /><path
         id="path70"
         style="fill:#231f20;fill-opacity:1;fill-rule:nonzero;stroke:none"
         d="m 2389.08,487.41 c 0,26.418 -8.2,45.789 -24.66,58.18 -11.46,8.422 -28.61,12.609 -51.32,12.609 h -32.55 V 415.91 h 32.55 c 24.27,0 43.04,6.18 56.17,18.551 13.24,12.32 19.81,29.961 19.81,52.949 m 44.19,0.281 c 0,-29.871 -9.8,-55.312 -29.55,-76.332 -19.67,-21 -48.63,-31.527 -86.75,-31.527 h -79.25 v 214.477 h 79.56 c 38.39,0 67.27,-10.368 86.77,-31.18 19.47,-20.848 29.22,-45.957 29.22,-75.438" /><path
         id="path72"
         style="fill:#231f20;fill-opacity:1;fill-rule:nonzero;stroke:none"
         d="m 2563.19,467.602 -24.97,77.668 -24.77,-77.668 z m 70.84,-87.77 h -42.9 l -16.88,53.02 h -71.84 l -17.5,-53.02 h -42.95 l 77.72,214.477 h 36.66 l 77.69,-214.477" /><path
         id="path74"
         style="fill:#231f20;fill-opacity:1;fill-rule:nonzero;stroke:none"
         d="m 2813.7,487.41 c 0,26.418 -8.17,45.789 -24.68,58.18 -11.5,8.422 -28.6,12.609 -51.34,12.609 h -32.5 V 415.91 h 32.5 c 24.28,0 43.05,6.18 56.21,18.551 13.22,12.32 19.81,29.961 19.81,52.949 m 44.2,0.281 c 0,-29.871 -9.84,-55.312 -29.62,-76.332 -19.66,-21 -48.62,-31.527 -86.69,-31.527 h -79.29 v 214.477 h 79.6 c 38.34,0 67.21,-10.368 86.75,-31.18 19.53,-20.848 29.25,-45.957 29.25,-75.438" /><path
         id="path76"
         style="fill:#231f20;fill-opacity:1;fill-rule:nonzero;stroke:none"
         d="m 3030.05,379.832 h -134.84 v 214.477 h 130.62 v -34.758 h -89.72 v -52.942 h 73.44 v -34.82 h -73.44 v -57.18 h 93.94 v -34.777" /><path
         id="path78"
         style="fill:#231f20;fill-opacity:1;fill-rule:nonzero;stroke:none"
         d="m 3300.71,487.41 c 0,26.418 -8.21,45.789 -24.67,58.18 -11.54,8.422 -28.63,12.609 -51.41,12.609 h -32.44 V 415.91 h 32.44 c 24.36,0 43.03,6.18 56.18,18.551 13.3,12.32 19.9,29.961 19.9,52.949 m 44.14,0.281 c 0,-29.871 -9.77,-55.312 -29.51,-76.332 -19.77,-21 -48.69,-31.527 -86.76,-31.527 h -79.34 v 214.477 h 79.69 c 38.32,0 67.17,-10.368 86.72,-31.18 19.49,-20.848 29.2,-45.957 29.2,-75.438" /><path
         id="path80"
         style="fill:#231f20;fill-opacity:1;fill-rule:nonzero;stroke:none"
         d="m 3517.04,379.832 h -134.85 v 214.477 h 130.63 v -34.758 h -89.73 v -52.942 h 73.46 v -34.82 h -73.46 v -57.18 h 93.95 v -34.777" /><path
         id="path82"
         style="fill:#231f20;fill-opacity:1;fill-rule:nonzero;stroke:none"
         d="m 3772.99,379.832 h -134.78 v 214.477 h 130.66 v -34.758 h -89.72 v -52.942 h 73.51 v -34.82 h -73.51 v -57.18 h 93.84 v -34.777" /><path
         id="path84"
         style="fill:#231f20;fill-opacity:1;fill-rule:nonzero;stroke:none"
         d="m 3999.09,377.898 h -42.85 l -91.98,138.774 c -0.43,0.598 -0.99,1.629 -1.83,3.09 -0.84,1.359 -1.7,3.187 -2.78,5.289 -0.37,0.98 -0.8,1.648 -1.32,2.34 -0.38,0.629 -0.81,1.39 -1.31,2.238 -1.27,2.391 -2.21,4.922 -2.91,7.473 v -157.27 h -38.99 v 214.477 h 47.19 l 90,-141.039 c 0.19,-0.43 0.86,-1.911 2.05,-4.379 1.21,-2.481 1.88,-3.942 2.19,-4.352 l 1.91,-5.551 1.94,-3.879 v 159.2 h 38.69 V 377.898" /><path
         id="path86"
         style="fill:#231f20;fill-opacity:1;fill-rule:nonzero;stroke:none"
         d="m 4236.94,387.93 c -2.74,-0.59 -6.04,-1.379 -9.69,-2.301 -3.65,-0.777 -7.6,-1.801 -11.97,-2.828 -19.96,-4.77 -37.97,-7.129 -53.97,-7.129 -35.54,0 -64.59,10.277 -87.07,30.848 -22.34,20.812 -33.49,47.742 -33.49,80.89 0,32.93 11.85,60.231 35.5,81.86 20.47,19.082 48.52,28.601 83.74,28.601 16.48,0 31.4,-1.641 44.9,-4.891 4.26,-1.058 9.12,-2.582 14.39,-4.339 5.35,-1.871 11.15,-4.161 17.4,-7.012 L 4227,547.512 c -2.21,0.847 -4.79,1.769 -7.72,2.777 -2.87,0.91 -6.21,2.109 -9.94,3.402 -15.33,5.207 -30.08,7.797 -44.14,7.797 -23.79,0 -43.48,-6.758 -58.87,-20.16 -15.06,-13.207 -22.69,-30.558 -22.69,-52 0,-21.859 8.2,-40.328 24.37,-55.246 16.43,-14.703 36.57,-22.023 60.14,-22.023 7.58,0 16.91,1.453 27.95,4.492 v 59.148 h 40.84 V 387.93" /><path
         id="path88"
         style="fill:#231f20;fill-opacity:1;fill-rule:nonzero;stroke:none"
         d="m 4425.04,379.832 h -134.88 v 214.477 h 130.57 v -34.758 h -89.65 v -52.942 h 73.48 v -34.82 h -73.48 v -57.18 h 93.96 v -34.777" /><path
         id="path90"
         style="fill:#231f20;fill-opacity:1;fill-rule:nonzero;stroke:none"
         d="m 4651.08,377.898 h -42.93 l -91.95,138.774 c -0.45,0.598 -1.06,1.629 -1.82,3.09 -0.74,1.359 -1.66,3.187 -2.79,5.289 -0.37,0.98 -0.84,1.648 -1.31,2.34 -0.39,0.629 -0.8,1.39 -1.27,2.238 -1.27,2.391 -2.21,4.922 -2.83,7.473 v -157.27 h -38.99 v 214.477 h 47.05 l 90,-141.039 c 0.26,-0.43 0.92,-1.911 2.11,-4.379 1.17,-2.481 1.94,-3.942 2.11,-4.352 l 1.97,-5.551 1.96,-3.879 v 159.2 h 38.69 V 377.898" /><path
         id="path92"
         style="fill:#231f20;fill-opacity:1;fill-rule:nonzero;stroke:none"
         d="m 4903.85,379.832 h -40.93 v 91.957 h -110.08 v -91.957 h -40.92 v 214.477 h 40.92 v -85.75 h 110.08 v 85.75 h 40.93 V 379.832" /><path
         id="path94"
         style="fill:#231f20;fill-opacity:1;fill-rule:nonzero;stroke:none"
         d="m 5054.85,467.602 -25.12,77.668 -24.65,-77.668 z m 70.8,-87.77 h -42.93 l -16.89,53.02 h -71.72 l -17.6,-53.02 h -42.83 l 77.57,214.477 h 36.72 l 77.68,-214.477" /><path
         id="path96"
         style="fill:#231f20;fill-opacity:1;fill-rule:nonzero;stroke:none"
         d="m 5260.77,530.922 c 0,10.437 -2.84,17.758 -8.44,22.148 -5.59,4.321 -15.25,6.45 -28.83,6.45 h -26.66 v -59.129 h 26.66 c 24.84,0 37.27,10.16 37.27,30.531 m 50.33,-151.09 h -44.77 l -49.04,85.84 h -20.45 v -85.84 h -41.01 v 214.477 h 71.44 c 7.87,0 14.65,-0.278 20.51,-0.821 5.84,-0.527 11.01,-1.418 15.43,-2.578 4.45,-1.172 8.47,-2.808 12.01,-4.922 3.53,-2.019 7.01,-4.566 10.27,-7.636 11.68,-10.782 17.54,-26.301 17.54,-46.454 0,-16.91 -3.9,-30.328 -11.7,-40.238 -6.72,-8.89 -17.87,-15.551 -33.47,-19.871 l 53.24,-91.957" /><path
         id="path98"
         style="fill:#231f20;fill-opacity:1;fill-rule:nonzero;stroke:none"
         d="m 5385.9,379.832 h -40.91 V 594.34 h 40.91 V 379.832" /><path
         id="path100"
         style="fill:#231f20;fill-opacity:1;fill-rule:nonzero;stroke:none"
         d="m 5536.1,467.602 -25.1,77.668 -24.61,-77.668 z m 70.8,-87.77 h -42.87 l -16.94,53.02 h -71.81 l -17.52,-53.02 h -42.89 l 77.62,214.477 h 36.73 l 77.68,-214.477" /><path
         id="path102"
         style="fill:#231f20;fill-opacity:1;fill-rule:nonzero;stroke:none"
         d="m 1385.91,1247.76 c 7.95,-4.96 18.19,-9.41 30.73,-13.37 12.49,-3.98 25.82,-6 39.87,-6 38.52,0 73.09,12.14 103.6,36.33 30.62,24.23 45.86,64.21 45.86,120.03 0,59.45 -13.6,103.13 -40.78,131.04 -27.24,27.91 -68.31,41.82 -123.34,41.82 h -55.94 z m -93.51,309.85 h -90.78 v 14.66 h 261.32 c 73.99,0 132.79,-14.06 176.52,-42.23 43.69,-28.22 65.55,-73.88 65.55,-137 0,-60.07 -23.09,-104.98 -69.19,-134.69 -46.19,-29.73 -100.74,-44.6 -163.71,-44.6 -36.68,0 -65.43,5.19 -86.2,15.59 V 940.461 h 93.53 v -14.625 h -277.82 v 14.625 h 90.78 v 617.149" /><path
         id="path104"
         style="fill:#231f20;fill-opacity:1;fill-rule:nonzero;stroke:none"
         d="m 2077.28,926.711 c 49.52,0 88.01,17.289 115.52,51.75 27.51,34.469 46.01,75.409 55.49,122.719 9.46,47.3 14.21,96.62 14.21,147.87 0,53.08 -4.4,102.84 -13.28,149.29 -8.84,46.33 -27.06,86.8 -54.61,121.32 -27.45,34.45 -66.62,51.69 -117.33,51.69 -49.53,0 -88.02,-17.24 -115.53,-51.69 -27.52,-34.52 -46,-75.43 -55.5,-122.7 -9.48,-47.31 -14.2,-96.64 -14.2,-147.91 0,-53.14 4.46,-102.84 13.31,-149.26 8.88,-46.43 27.06,-86.86 54.54,-121.329 27.52,-34.461 66.66,-51.75 117.38,-51.75 m 0,659.309 c 77.64,0 145.33,-32.92 203.1,-98.83 57.77,-65.95 86.68,-145.29 86.68,-238.14 0,-93.41 -28.61,-172.91 -85.77,-238.58 -57.12,-65.591 -125.13,-98.396 -204.01,-98.396 -77.63,0 -145.35,32.93 -203.13,98.906 -57.72,65.92 -86.63,145.28 -86.63,238.07 0,93.41 28.57,172.91 85.73,238.55 57.17,65.65 125.14,98.42 204.03,98.42" /><path
         id="path106"
         style="fill:#231f20;fill-opacity:1;fill-rule:nonzero;stroke:none"
         d="m 2617.5,1265.1 h 45.86 c 56.87,0 99.63,11.2 128.37,33.6 28.75,22.35 43.15,59.31 43.15,110.78 0,44.22 -11.05,79.91 -33.04,107.22 -22.03,27.22 -62.65,40.91 -121.97,40.91 h -62.37 z m -93.52,292.51 h -91.67 v 14.66 h 281.46 c 65.42,0 118.45,-11.32 159.17,-34.02 40.63,-22.65 60.93,-65.6 60.93,-128.77 0,-49.64 -20.18,-85.5 -60.55,-107.57 -40.32,-22.05 -85.59,-36.18 -135.68,-42.32 58.03,-6.1 100.11,-19.06 126.09,-38.99 25.99,-19.8 42.36,-58.53 49.08,-115.93 l 12.79,-111.92 c 3.11,-23.215 9.02,-38.637 17.85,-46.289 8.9,-7.668 18.8,-11.516 29.84,-11.516 9.77,0 22.33,3.098 37.58,9.239 l 5.49,-11.946 c -9.76,-3.66 -20.55,-6.562 -32.54,-8.711 -11.89,-2.148 -26.05,-3.211 -42.63,-3.211 -50.72,0 -83.29,11.758 -97.64,35.282 -14.36,23.527 -25.57,66.762 -33.48,129.742 l -6.39,55.06 c -3.68,35.42 -13.92,62.67 -30.75,81.62 -16.79,18.92 -48.76,28.41 -95.84,28.41 H 2617.5 V 940.461 h 93.53 v -14.625 h -278.72 v 14.625 h 91.67 v 617.149" /><path
         id="path108"
         style="fill:#231f20;fill-opacity:1;fill-rule:nonzero;stroke:none"
         d="m 3281.67,1557.61 h -19.32 c -83.13,0 -137.25,-10.57 -162.31,-31.64 -25.04,-21.06 -37.59,-68.97 -37.59,-143.49 h -14.64 v 189.79 h 561.2 v -189.79 h -14.71 c 0,73.92 -12.52,121.63 -37.62,143.05 -25.07,21.35 -78.8,32.08 -161.36,32.08 h -20.2 V 940.461 h 94.49 v -14.664 h -282.44 v 14.664 h 94.5 v 617.149" /><path
         id="path110"
         style="fill:#231f20;fill-opacity:1;fill-rule:nonzero;stroke:none"
         d="m 3965.88,926.711 c 49.57,0 88.05,17.289 115.55,51.75 27.52,34.469 45.98,75.409 55.51,122.719 9.45,47.3 14.18,96.62 14.18,147.87 0,53.08 -4.42,102.84 -13.24,149.29 -8.89,46.33 -27.09,86.8 -54.61,121.32 -27.44,34.45 -66.62,51.69 -117.39,51.69 -49.51,0 -88.02,-17.24 -115.48,-51.69 -27.54,-34.52 -46.06,-75.43 -55.51,-122.7 -9.47,-47.31 -14.2,-96.64 -14.2,-147.91 0,-53.14 4.39,-102.84 13.3,-149.26 8.85,-46.43 27.07,-86.86 54.55,-121.329 27.52,-34.461 66.62,-51.75 117.34,-51.75 m 0,659.309 c 77.64,0 145.37,-32.92 203.15,-98.83 57.79,-65.95 86.6,-145.29 86.6,-238.14 0,-93.41 -28.55,-172.91 -85.7,-238.58 -57.15,-65.591 -125.18,-98.396 -204.05,-98.396 -77.61,0 -145.33,32.93 -203.1,98.906 -57.78,65.92 -86.62,145.28 -86.62,238.07 0,93.41 28.59,172.91 85.7,238.55 57.19,65.65 125.22,98.42 204.02,98.42" /><path
         id="path112"
         style="fill:#231f20;fill-opacity:1;fill-rule:nonzero;stroke:none"
         d="M 0,760.012 H 1111.33 V 1737.65 H 0 Z m 791.133,796.638 h -23.875 c -16.461,0 -28.543,-6.27 -36.188,-18.76 -7.664,-12.45 -11.465,-31.88 -11.465,-58.11 v -342.49 c 0,-69.54 -20.027,-124.23 -60.078,-163.938 C 619.465,933.715 558.816,913.84 477.5,913.84 c -75.187,0 -135.242,20.312 -180.164,60.93 -44.934,40.59 -67.402,96.29 -67.402,167.12 v 414.76 H 158.43 v 16.51 h 288.84 v -16.51 H 372.953 V 1153.8 c 0,-67.17 11.219,-118.41 33.492,-153.827 22.309,-35.418 64.922,-58.719 127.012,-53.114 49.094,4.481 77.125,15.868 108.316,47.625 31.188,31.726 46.758,77.516 46.758,137.376 v 347.92 c 0,27.46 -4.422,47.15 -13.293,59.06 -8.867,11.83 -15.836,17.81 -39.105,17.81 h -26.559 v 16.51 H 791.133 Z M 936.617,937.785 c -12.531,-12.558 -27.926,-18.863 -46.113,-18.863 -18.18,0 -33.551,6.305 -46.125,18.863 -12.598,12.551 -18.887,27.942 -18.887,46.106 0,18.199 6.289,33.559 18.887,46.169 12.574,12.55 27.945,18.79 46.125,18.79 18.187,0 33.582,-6.24 46.113,-18.79 12.598,-12.61 18.852,-27.97 18.852,-46.169 0,-18.164 -6.254,-33.555 -18.852,-46.106" /></g></g></svg>