<?xml version="1.0" encoding="UTF-8" standalone="no"?>
<svg
   xmlns:dc="http://purl.org/dc/elements/1.1/"
   xmlns:cc="http://creativecommons.org/ns#"
   xmlns:rdf="http://www.w3.org/1999/02/22-rdf-syntax-ns#"
   xmlns:svg="http://www.w3.org/2000/svg"
   xmlns="http://www.w3.org/2000/svg"
   xmlns:sodipodi="http://sodipodi.sourceforge.net/DTD/sodipodi-0.dtd"
   xmlns:inkscape="http://www.inkscape.org/namespaces/inkscape"
   version="1.1"
   id="svg2"
   xml:space="preserve"
   width="650.17334"
   height="702.76001"
   viewBox="0 0 650.17334 702.76001"
   sodipodi:docname="Ubisoft Berlin_LOGO BLACK.eps"><metadata
     id="metadata8"><rdf:RDF><cc:Work
         rdf:about=""><dc:format>image/svg+xml</dc:format><dc:type
           rdf:resource="http://purl.org/dc/dcmitype/StillImage" /></cc:Work></rdf:RDF></metadata><defs
     id="defs6" /><sodipodi:namedview
     pagecolor="#ffffff"
     bordercolor="#666666"
     borderopacity="1"
     objecttolerance="10"
     gridtolerance="10"
     guidetolerance="10"
     inkscape:pageopacity="0"
     inkscape:pageshadow="2"
     inkscape:window-width="640"
     inkscape:window-height="480"
     id="namedview4" /><g
     id="g10"
     inkscape:groupmode="layer"
     inkscape:label="ink_ext_XXXXXX"
     transform="matrix(1.3333333,0,0,-1.3333333,0,702.76)"><g
       id="g12"
       transform="scale(0.1)"><path
         d="m 1459.12,63.6523 c 59.95,0 97.69,36.9957 97.69,88.7967 0,51.801 -37.74,88.813 -97.69,88.813 H 1357.74 V 63.6523 Z M 1448.77,296.02 c 55.5,0 89.54,28.121 89.54,79.191 0,51.059 -34.04,79.18 -89.54,79.18 h -91.03 V 296.02 Z m -159.11,222.019 h 156.88 c 100.65,0 158.37,-58.469 158.37,-132.469 0,-58.468 -34.78,-96.949 -69.56,-113.968 51.06,-20.723 89.54,-55.5 89.54,-125.071 C 1624.89,63.6523 1554.59,0 1451.73,0 h -162.07 v 518.039"
         style="fill:#100f0d;fill-opacity:1;fill-rule:nonzero;stroke:none"
         id="path14" /><path
         d="M 2041.52,63.6523 V 0 h -333.76 v 518.039 h 329.32 v -63.648 h -261.24 v -167.25 h 236.08 V 230.902 H 1775.84 V 63.6523 h 265.68"
         style="fill:#100f0d;fill-opacity:1;fill-rule:nonzero;stroke:none"
         id="path16" /><path
         d="m 2202.81,270.859 h 109.53 c 59.94,0 102.87,28.86 102.87,91.77 0,62.902 -42.93,91.762 -102.87,91.762 H 2202.81 Z M 2414.46,0 2298.28,214.621 h -95.47 V 0 h -68.08 v 518.039 h 178.35 c 102.86,0 170.21,-61.43 170.21,-151.707 0,-71.793 -42.19,-125.07 -110.27,-144.312 L 2493.65,0 h -79.19"
         style="fill:#100f0d;fill-opacity:1;fill-rule:nonzero;stroke:none"
         id="path18" /><path
         d="M 2917.66,63.6523 V 0 H 2583.9 v 518.039 h 68.08 V 63.6523 h 265.68"
         style="fill:#100f0d;fill-opacity:1;fill-rule:nonzero;stroke:none"
         id="path20" /><path
         d="m 3009.4,518.039 h 68.08 V 0 h -68.08 v 518.039"
         style="fill:#100f0d;fill-opacity:1;fill-rule:nonzero;stroke:none"
         id="path22" /><path
         d="m 3178.11,518.039 h 93.24 L 3518.53,79.9297 h 4.44 l -4.44,61.4223 v 376.687 h 68.08 V 0 h -93.24 l -247.18,438.109 h -4.44 l 4.44,-61.418 V 0 h -68.08 v 518.039"
         style="fill:#100f0d;fill-opacity:1;fill-rule:nonzero;stroke:none"
         id="path24" /><path
         d="M 4876.27,1519.39 H 4624.89 V 806.301 h -194.95 v 713.089 h -252.67 v 184.69 h 699 z m -1193.2,0 V 1311.62 H 4064 V 1162.85 H 3683.07 V 806.301 h -194.93 v 897.779 h 614.33 v -184.69 z m -471.92,-264.2 c 0,161.61 -102.6,279.6 -259.07,279.6 -91.07,0 -159.04,-34.63 -200.08,-79.52 l 30.78,-30.79 c -47.45,-39.75 -89.78,-94.9 -89.78,-193.66 0,-135.95 96.19,-255.218 259.08,-255.218 156.47,0 259.07,117.978 259.07,279.588 z m 197.52,0 c 0,-264.21 -189.83,-464.28 -456.59,-464.28 -273.18,0 -456.6,196.231 -456.6,433.5 0,153.9 60.29,265.49 148.78,338.59 l -30.78,30.78 c 67.98,70.55 192.39,125.69 338.6,125.69 266.76,0 456.59,-202.64 456.59,-464.28 z m -1200.8,85.93 c 153.9,-53.87 233.43,-123.13 233.43,-261.64 0,-185.96 -142.37,-288.57 -310.38,-288.57 -155.18,0 -274.47,69.25 -324.49,197.512 l 155.19,115.418 c 28.22,-80.8 101.33,-130.82 174.42,-130.82 64.13,0 110.31,34.64 110.31,92.35 0,53.87 -34.63,87.21 -162.89,133.38 -138.51,50.02 -241.12,119.29 -241.12,268.07 0,143.63 119.28,252.65 292.43,252.65 137.23,0 243.68,-55.14 293.7,-164.16 l -155.19,-107.74 c -29.49,66.69 -75.67,103.89 -146.21,103.89 -59,0 -102.61,-32.07 -102.61,-78.24 0,-52.59 48.74,-84.64 183.41,-132.1 z m -666.07,362.96 h 194.94 V 806.301 H 1541.8 Z M 1140.5,978.152 c 83.37,0 130.82,38.488 130.82,112.868 0,74.39 -47.45,112.87 -130.82,112.87 H 1032.77 V 978.152 Z M 1032.77,1532.23 V 1342.4 h 102.6 c 60.28,0 101.32,34.64 101.32,94.91 0,60.29 -41.04,94.92 -101.32,94.92 z m 433.51,-459.16 c 0,-155.191 -121.85,-266.769 -318.08,-266.769 H 837.82 v 897.779 h 298.84 c 173.13,0 287.29,-83.36 287.29,-216.75 0,-101.32 -47.46,-162.88 -118,-192.38 94.9,-35.92 160.33,-101.32 160.33,-221.88 z m -724.971,631.01 v -538.67 c 0,-214.191 -130.817,-374.5 -370.653,-374.5 C 130.824,790.91 0,951.219 0,1165.41 v 538.67 h 194.949 v -523.27 c 0,-130.83 61.563,-205.208 175.707,-205.208 114.145,0 175.703,74.378 175.703,205.208 v 523.27 h 194.95"
         style="fill:#231f20;fill-opacity:1;fill-rule:nonzero;stroke:none"
         id="path26" /><path
         d="m 3646.43,3054.43 c -227.27,-515.84 -694.91,-785.8 -1194.37,-779.55 -958.08,47.52 -1236.78,1153.94 -596.5,1553.39 l 28.17,-28.17 c -10.94,-14.34 -48.09,-44.47 -107.96,-161.61 -69.76,-142.34 -91.02,-284.22 -82.78,-372.98 49.86,-773.43 1131.89,-930.73 1504.6,-166.16 C 3672,4148.13 2414.53,5213.24 1298.05,4399.2 l -25.78,25.77 c 293.67,460.78 867.48,667 1415.52,529.22 838.07,-209.54 1287.97,-1083.67 958.64,-1899.76 z m -895.78,16.6 c -77.59,-111.67 -206.76,-184.79 -353.04,-184.79 -237.27,0 -429.61,192.34 -429.61,429.6 0,226.78 175.73,412.5 398.44,428.48 v -0.01 c 138.7,5.57 267.94,-69.37 329.47,-190.91 66.35,-131.02 42.07,-292.64 -61.27,-401.62 38.67,-26.92 77.34,-53.83 116.01,-80.75 z m -1498.81,283.73 c -20.7,-170.61 -7.79,-223.9 -7.84,-244.17 l -37.9,-13.79 c -14.33,28.06 -50.73,126.92 -66.77,259.78 -41.01,507.26 304.62,964.39 830.77,1049.48 482.57,70.92 943.95,-228.79 1052.03,-648.27 l -38.01,-13.84 c -11.29,12.49 -31.44,46.44 -104.38,120.37 -581.97,584.63 -1496.62,316.49 -1627.9,-509.56 z m 2760.08,281.31 c -34.45,1676.4 -2261.07,2301.18 -3118.315,730.26 37.887,-27.42 90.29,-64.49 128.185,-91.91 C 956.105,4136.5 912.328,3996 888.379,3855.96 c -16.656,-91.8 -25.399,-186.37 -25.399,-282.97 0,-869.94 705.22,-1575.16 1575.15,-1575.16 869.94,0 1575.16,705.22 1575.16,1575.16 0,21.14 -0.54,42.15 -1.37,63.08"
         style="fill:#231f20;fill-opacity:1;fill-rule:nonzero;stroke:none"
         id="path28" /></g></g></svg>
