<?xml version="1.0" encoding="UTF-8" standalone="no"?>
<svg
   xmlns:dc="http://purl.org/dc/elements/1.1/"
   xmlns:cc="http://creativecommons.org/ns#"
   xmlns:rdf="http://www.w3.org/1999/02/22-rdf-syntax-ns#"
   xmlns:svg="http://www.w3.org/2000/svg"
   xmlns="http://www.w3.org/2000/svg"
   xmlns:sodipodi="http://sodipodi.sourceforge.net/DTD/sodipodi-0.dtd"
   xmlns:inkscape="http://www.inkscape.org/namespaces/inkscape"
   version="1.1"
   id="svg2"
   xml:space="preserve"
   width="650.17334"
   height="704.21332"
   viewBox="0 0 650.17334 704.21332"
   sodipodi:docname="Ubisoft_Berlin_LOGO_BLACK.eps"><metadata
     id="metadata8"><rdf:RDF><cc:Work
         rdf:about=""><dc:format>image/svg+xml</dc:format><dc:type
           rdf:resource="http://purl.org/dc/dcmitype/StillImage" /></cc:Work></rdf:RDF></metadata><defs
     id="defs6" /><sodipodi:namedview
     pagecolor="#ffffff"
     bordercolor="#666666"
     borderopacity="1"
     objecttolerance="10"
     gridtolerance="10"
     guidetolerance="10"
     inkscape:pageopacity="0"
     inkscape:pageshadow="2"
     inkscape:window-width="640"
     inkscape:window-height="480"
     id="namedview4" /><g
     id="g10"
     inkscape:groupmode="layer"
     inkscape:label="ink_ext_XXXXXX"
     transform="matrix(1.3333333,0,0,-1.3333333,0,704.21333)"><g
       id="g12"
       transform="scale(0.1)"><path
         d="m 3164,531.988 h 95.76 L 3513.6,82.082 h 4.56 l -4.56,63.078 v 386.828 h 69.92 V 0 h -95.76 l -253.84,449.91 h -4.57 l 4.57,-63.07 V 0 H 3164 Z m -158.08,0 h 69.92 V 0 h -69.92 z M 2926.89,65.3516 V 0 h -342.76 v 531.988 h 69.91 V 65.3516 Z M 2207.94,278.148 h 112.48 c 31.91,0 57.5,7.864 76.75,23.571 19.25,15.691 28.88,39.261 28.88,70.672 0,31.41 -9.63,54.968 -28.88,70.687 -19.25,15.703 -44.84,23.563 -76.75,23.563 H 2207.94 Z M 2425.3,0 2305.97,220.398 h -98.03 V 0 h -69.93 v 531.988 h 183.17 c 34.95,0 65.6,-6.449 91.95,-19.367 26.34,-12.922 46.75,-31.16 61.18,-54.723 14.45,-23.558 21.66,-50.796 21.66,-81.699 0,-36.48 -10.14,-67.769 -30.4,-93.867 C 2445.3,256.23 2417.69,238.129 2382.73,228 L 2506.62,0 Z M 2057.46,65.3516 V 0 H 1714.7 v 531.988 h 338.2 v -65.347 h -268.28 v -171.77 h 242.44 V 237.109 H 1784.62 V 65.3516 Z m -582.92,0 c 30.4,0 54.72,8.4804 72.96,25.4687 18.24,16.9607 27.36,38.8787 27.36,65.7307 0,26.847 -9.12,48.758 -27.36,65.738 -18.24,16.981 -42.56,25.461 -72.96,25.461 H 1370.42 V 65.3516 Z M 1463.9,303.988 c 28.88,0 51.42,7.094 67.64,21.282 16.21,14.179 24.32,34.199 24.32,60.039 0,25.839 -8.11,45.851 -24.32,60.043 -16.22,14.179 -38.76,21.289 -67.64,21.289 h -93.48 V 303.988 Z m -163.4,228 h 161.12 c 33.44,0 62.44,-5.949 87.02,-17.847 24.57,-11.911 43.32,-28.262 56.24,-49.02 12.92,-20.781 19.38,-43.832 19.38,-69.16 0,-27.871 -6.84,-51.949 -20.52,-72.211 -13.68,-20.262 -30.66,-35.211 -50.92,-44.828 28.88,-11.66 51.42,-27.633 67.64,-47.883 16.21,-20.277 24.32,-47.117 24.32,-80.559 0,-28.378 -7.48,-53.9683 -22.42,-76.7612 C 1607.41,50.9219 1586.38,32.9219 1559.28,19.7617 1532.17,6.57031 1501.39,0 1466.94,0 H 1300.5 v 531.988"
         style="fill:#000000;fill-opacity:1;fill-rule:nonzero;stroke:none"
         id="path14" /><path
         d="M 4876.27,1530.26 H 4624.89 V 817.172 h -194.95 v 713.088 h -252.67 v 184.69 h 699 z m -1193.2,0 V 1322.49 H 4064 V 1173.72 H 3683.07 V 817.172 h -194.93 v 897.778 h 614.33 v -184.69 z m -471.92,-264.2 c 0,161.61 -102.6,279.6 -259.08,279.6 -91.06,0 -159.03,-34.63 -200.07,-79.52 l 30.78,-30.79 c -47.45,-39.75 -89.78,-94.9 -89.78,-193.66 0,-135.95 96.18,-255.229 259.07,-255.229 156.48,0 259.08,117.989 259.08,279.599 z m 197.52,0 c 0,-264.21 -189.83,-464.279 -456.6,-464.279 -273.17,0 -456.59,196.231 -456.59,433.499 0,153.9 60.29,265.49 148.78,338.59 l -30.78,30.78 c 67.98,70.55 192.38,125.69 338.59,125.69 266.77,0 456.6,-202.64 456.6,-464.28 z m -1200.8,85.93 c 153.9,-53.87 233.42,-123.13 233.42,-261.64 0,-185.971 -142.36,-288.569 -310.37,-288.569 -155.18,0 -274.47,69.25 -324.49,197.508 l 155.19,115.421 c 28.22,-80.8 101.32,-130.819 174.42,-130.819 64.13,0 110.31,34.639 110.31,92.349 0,53.87 -34.64,87.21 -162.89,133.38 -138.51,50.02 -241.12,119.29 -241.12,268.07 0,143.63 119.28,252.65 292.43,252.65 137.23,0 243.68,-55.14 293.7,-164.16 l -155.19,-107.74 c -29.5,66.69 -75.67,103.89 -146.22,103.89 -58.99,0 -102.6,-32.07 -102.6,-78.24 0,-52.59 48.74,-84.64 183.41,-132.1 z m -666.07,362.96 h 194.94 V 817.172 H 1541.8 Z M 1140.5,989.02 c 83.37,0 130.82,38.48 130.82,112.87 0,74.39 -47.45,112.87 -130.82,112.87 H 1032.77 V 989.02 Z m -107.73,554.08 v -189.83 h 102.61 c 60.27,0 101.31,34.64 101.31,94.91 0,60.29 -41.04,94.92 -101.31,94.92 z m 433.5,-459.16 c 0,-155.202 -121.84,-266.768 -318.07,-266.768 H 837.82 v 897.778 h 298.84 c 173.13,0 287.29,-83.36 287.29,-216.75 0,-101.32 -47.46,-162.88 -118,-192.38 94.9,-35.92 160.32,-101.32 160.32,-221.88 z M 741.313,1714.95 V 1176.28 C 741.313,962.09 610.492,801.781 370.656,801.781 130.824,801.781 0,962.09 0,1176.28 v 538.67 h 194.949 v -523.28 c 0,-130.82 61.563,-205.209 175.707,-205.209 114.145,0 175.707,74.389 175.707,205.209 v 523.28 h 194.95"
         style="fill:#000000;fill-opacity:1;fill-rule:nonzero;stroke:none"
         id="path16" /><path
         d="m 3646.43,3065.3 c -227.27,-515.84 -694.91,-785.8 -1194.37,-779.55 -958.08,47.52 -1236.78,1153.94 -596.5,1553.39 l 28.17,-28.17 c -10.93,-14.34 -48.09,-44.47 -107.95,-161.61 -69.77,-142.34 -91.03,-284.22 -82.78,-372.98 49.86,-773.43 1131.89,-930.73 1504.59,-166.16 C 3672,4159 2414.54,5224.11 1298.05,4410.06 l -25.78,25.78 c 293.67,460.78 867.48,667 1415.52,529.22 838.07,-209.54 1287.97,-1083.67 958.64,-1899.76 z m -895.78,16.6 c -77.58,-111.67 -206.76,-184.79 -353.04,-184.79 -237.26,0 -429.61,192.34 -429.61,429.6 0,226.78 175.73,412.5 398.44,428.48 v -0.01 c 138.7,5.57 267.94,-69.37 329.48,-190.91 66.34,-131.02 42.06,-292.64 -61.28,-401.62 38.68,-26.92 77.34,-53.83 116.01,-80.75 z m -1498.81,283.73 c -20.7,-170.61 -7.79,-223.9 -7.84,-244.18 l -37.9,-13.78 c -14.33,28.06 -50.73,126.92 -66.77,259.78 -41.01,507.26 304.62,964.39 830.78,1049.48 482.56,70.92 943.95,-228.79 1052.02,-648.27 l -38,-13.84 c -11.29,12.49 -31.45,46.44 -104.39,120.37 -581.96,584.63 -1496.62,316.48 -1627.9,-509.56 z m 2760.08,281.31 c -34.44,1676.4 -2261.07,2301.18 -3118.315,730.26 37.887,-27.41 90.29,-64.49 128.185,-91.91 -65.685,-137.92 -109.462,-278.42 -133.411,-418.46 -16.656,-91.8 -25.399,-186.37 -25.399,-282.97 0,-869.94 705.22,-1575.16 1575.15,-1575.16 869.94,0 1575.16,705.22 1575.16,1575.16 0,21.13 -0.54,42.15 -1.37,63.08"
         style="fill:#000000;fill-opacity:1;fill-rule:nonzero;stroke:none"
         id="path18" /></g></g></svg>
