<?xml version="1.0" encoding="UTF-8" standalone="no"?>
<svg
   xmlns:dc="http://purl.org/dc/elements/1.1/"
   xmlns:cc="http://creativecommons.org/ns#"
   xmlns:rdf="http://www.w3.org/1999/02/22-rdf-syntax-ns#"
   xmlns:svg="http://www.w3.org/2000/svg"
   xmlns="http://www.w3.org/2000/svg"
   xmlns:sodipodi="http://sodipodi.sourceforge.net/DTD/sodipodi-0.dtd"
   xmlns:inkscape="http://www.inkscape.org/namespaces/inkscape"
   version="1.1"
   id="svg2"
   xml:space="preserve"
   width="650.17334"
   height="705.26666"
   viewBox="0 0 650.17334 705.26666"
   sodipodi:docname="Ubisoft Quebec_LOGO_BLACK.eps"><metadata
     id="metadata8"><rdf:RDF><cc:Work
         rdf:about=""><dc:format>image/svg+xml</dc:format><dc:type
           rdf:resource="http://purl.org/dc/dcmitype/StillImage" /></cc:Work></rdf:RDF></metadata><defs
     id="defs6" /><sodipodi:namedview
     pagecolor="#ffffff"
     bordercolor="#666666"
     borderopacity="1"
     objecttolerance="10"
     gridtolerance="10"
     guidetolerance="10"
     inkscape:pageopacity="0"
     inkscape:pageshadow="2"
     inkscape:window-width="640"
     inkscape:window-height="480"
     id="namedview4" /><g
     id="g10"
     inkscape:groupmode="layer"
     inkscape:label="ink_ext_XXXXXX"
     transform="matrix(1.3333333,0,0,-1.3333333,0,705.26667)"><g
       id="g12"
       transform="scale(0.1)"><path
         d="m 1290,65.0625 c -111.95,0 -189.1,86.9765 -189.1,208.7575 0,121.77 77.15,208.762 189.1,208.762 111.93,0 189.09,-86.992 189.09,-208.762 0,-121.781 -77.16,-208.7575 -189.09,-208.7575 z M 1550.19,273.82 c 0,157.332 -107.41,273.801 -260.19,273.801 -152.79,0 -260.2,-116.469 -260.2,-273.801 0,-157.328 107.41,-273.8082812 260.2,-273.8082812 65.8,0 122.52,21.1796812 166.4,58.2382812 l 55.21,-55.21094 56.73,52.94144 -60.51,62.0315 c 27.23,43.109 42.36,96.808 42.36,155.808"
         style="fill:#100f0d;fill-opacity:1;fill-rule:nonzero;stroke:none"
         id="path14" /><path
         d="m 1982.81,217.09 c 0,-101.348 -55.97,-152.0275 -135.39,-152.0275 -79.42,0 -135.39,50.6795 -135.39,152.0275 v 321.461 h -69.59 V 209.52 c 0,-124.8012 78.66,-209.5082812 204.98,-209.5082812 126.31,0 204.97,84.7070812 204.97,209.5082812 v 329.031 h -69.58 V 217.09"
         style="fill:#100f0d;fill-opacity:1;fill-rule:nonzero;stroke:none"
         id="path16" /><path
         d="m 2205.17,245.082 h 241.28 v 57.477 H 2205.17 V 473.5 h 267 v 65.051 H 2135.58 V 9.08984 H 2476.7 V 74.1406 H 2205.17 V 245.082"
         style="fill:#100f0d;fill-opacity:1;fill-rule:nonzero;stroke:none"
         id="path18" /><path
         d="m 2280.05,605.109 h 61.26 l 61.27,107.411 h -83.96 l -38.57,-107.411"
         style="fill:#100f0d;fill-opacity:1;fill-rule:nonzero;stroke:none"
         id="path20" /><path
         d="M 2730.07,74.1406 H 2626.45 V 255.66 h 103.62 c 61.27,0 99.84,-37.82 99.84,-90.758 0,-52.953 -38.57,-90.7614 -99.84,-90.7614 z M 2626.45,473.5 h 93.03 c 56.73,0 91.53,-28.738 91.53,-80.93 0,-52.191 -34.8,-80.929 -91.53,-80.929 h -93.03 z m 181.53,-186.82 c 35.55,17.39 71.1,56.73 71.1,116.48 0,75.641 -59,135.391 -161.86,135.391 H 2556.87 V 9.08984 h 165.64 c 105.14,0 176.99,65.05076 176.99,149.76216 0,71.097 -39.33,106.648 -91.52,127.828"
         style="fill:#100f0d;fill-opacity:1;fill-rule:nonzero;stroke:none"
         id="path22" /><path
         d="m 3038.66,245.082 h 241.29 v 57.477 H 3038.66 V 473.5 h 267 v 65.051 H 2969.07 V 9.08984 H 3310.2 V 74.1406 H 3038.66 V 245.082"
         style="fill:#100f0d;fill-opacity:1;fill-rule:nonzero;stroke:none"
         id="path24" /><path
         d="m 3635.44,482.582 c 77.91,0 123.29,-32.523 155.05,-93.043 l 54.46,37.063 C 3807.89,503 3738.31,547.621 3633.16,547.621 3487.19,547.621 3376,435.68 3376,273.82 3376,111.949 3485.67,0.769531 3633.16,0.0117188 3738.31,-0.738281 3803.35,46.1523 3844.95,122.539 l -55.98,39.332 c -34.78,-66.5624 -74.12,-96.8085 -153.53,-96.8085 -115.73,0 -188.34,83.1995 -188.34,208.7575 0,123.289 77.9,208.762 188.34,208.762"
         style="fill:#100f0d;fill-opacity:1;fill-rule:nonzero;stroke:none"
         id="path26" /><path
         d="M 1736.74,825.051 V 1722.83 H 1541.8 V 825.051 h 194.94"
         style="fill:#100f0d;fill-opacity:1;fill-rule:nonzero;stroke:none"
         id="path28" /><path
         d="m 546.363,1199.55 c 0,-130.82 -61.562,-205.21 -175.707,-205.21 -114.148,0 -175.707,74.39 -175.707,205.21 v 523.28 H 0 v -538.67 c 0,-214.191 130.82,-374.5 370.656,-374.5 239.836,0 370.653,160.309 370.653,374.5 v 538.67 H 546.363 v -523.28"
         style="fill:#100f0d;fill-opacity:1;fill-rule:nonzero;stroke:none"
         id="path30" /><path
         d="m 2952.07,994.34 c -162.88,0 -259.07,119.28 -259.07,255.23 0,98.76 42.32,153.9 89.78,193.66 l -30.78,30.79 c 41.04,44.88 109.01,79.52 200.07,79.52 156.48,0 259.08,-118 259.08,-279.6 0,-161.61 -102.6,-279.6 -259.08,-279.6 z m 456.59,279.6 c 0,261.63 -189.82,464.28 -456.59,464.28 -146.21,0 -270.61,-55.15 -338.59,-125.69 l 30.79,-30.78 c -88.5,-73.1 -148.79,-184.69 -148.79,-338.59 0,-237.27 183.42,-433.5 456.59,-433.5 266.77,0 456.59,200.07 456.59,464.28"
         style="fill:#100f0d;fill-opacity:1;fill-rule:nonzero;stroke:none"
         id="path32" /><path
         d="m 4177.27,1722.83 v -184.69 h 252.66 V 825.051 h 194.96 v 713.089 h 251.38 v 184.69 h -699"
         style="fill:#100f0d;fill-opacity:1;fill-rule:nonzero;stroke:none"
         id="path34" /><path
         d="m 3488.14,825.051 h 194.94 v 356.539 h 380.91 v 148.77 h -380.91 v 207.78 h 419.38 v 184.69 H 3488.14 V 825.051"
         style="fill:#100f0d;fill-opacity:1;fill-rule:nonzero;stroke:none"
         id="path36" /><path
         d="m 2441.29,1098.23 c 0,138.51 -79.52,207.76 -233.43,261.64 -134.66,47.46 -183.4,79.51 -183.4,132.1 0,46.17 43.61,78.24 102.6,78.24 70.55,0 116.72,-37.2 146.21,-103.89 l 155.21,107.74 c -50.03,109.01 -156.49,164.16 -293.71,164.16 -173.15,0 -292.43,-109.02 -292.43,-252.66 0,-148.77 102.61,-218.04 241.12,-268.06 128.25,-46.17 162.89,-79.51 162.89,-133.39 0,-57.7 -46.18,-92.34 -110.31,-92.34 -73.1,0 -146.2,50.02 -174.42,130.82 l -155.19,-115.42 c 50.02,-128.26 169.31,-197.51 324.49,-197.51 168.02,0 310.37,102.602 310.37,288.57"
         style="fill:#100f0d;fill-opacity:1;fill-rule:nonzero;stroke:none"
         id="path38" /><path
         d="m 1032.77,996.902 v 225.728 h 107.73 c 83.37,0 130.82,-38.47 130.82,-112.86 0,-74.39 -47.45,-112.868 -130.82,-112.868 z m 0,554.068 h 102.61 c 60.26,0 101.31,-34.62 101.31,-94.91 0,-60.28 -41.05,-94.91 -101.31,-94.91 h -102.61 z m 433.5,-459.16 c 0,120.57 -65.42,185.97 -160.32,221.88 70.54,29.51 118,91.07 118,192.39 0,133.39 -114.16,216.75 -287.29,216.75 H 837.816 V 825.051 H 1148.2 c 196.23,0 318.07,111.57 318.07,266.759"
         style="fill:#100f0d;fill-opacity:1;fill-rule:nonzero;stroke:none"
         id="path40" /><path
         d="m 1244,3129.33 -37.91,-13.78 c -14.32,28.06 -50.72,126.92 -66.76,259.78 -41.01,507.26 304.62,964.39 830.78,1049.48 482.56,70.92 943.95,-228.79 1052.02,-648.27 l -38.01,-13.84 c -11.29,12.49 -31.43,46.44 -104.38,120.36 -581.97,584.64 -1496.61,316.49 -1627.9,-509.55 -20.7,-170.61 -7.79,-223.9 -7.84,-244.18 z m 1451.92,442.82 c 66.34,-131.02 42.06,-292.64 -61.27,-401.62 38.66,-26.92 77.33,-53.83 115.99,-80.75 -77.57,-111.67 -206.74,-184.79 -353.03,-184.79 -237.26,0 -429.61,192.34 -429.61,429.6 0,226.78 175.73,412.5 398.44,428.47 v -0.01 c 138.71,5.58 267.94,-69.36 329.48,-190.9 z m -8.13,1400.79 c 838.07,-209.54 1287.97,-1083.67 958.65,-1899.76 -227.28,-515.84 -694.92,-785.8 -1194.38,-779.55 -958.08,47.52 -1236.78,1153.94 -596.5,1553.38 l 28.17,-28.16 C 1872.8,3804.5 1835.64,3774.38 1775.78,3657.23 1706.01,3514.9 1684.75,3373.02 1693,3284.26 1742.86,2510.83 2824.89,2353.53 3197.59,3118.1 3672,4166.88 2414.53,5231.99 1298.05,4417.94 l -25.78,25.78 c 293.67,460.78 867.48,667 1415.52,529.22 z M 2438.13,2016.58 c 869.95,0 1575.16,705.22 1575.16,1575.16 0,21.13 -0.55,42.14 -1.38,63.08 -34.43,1676.4 -2261.06,2301.18 -3118.305,730.26 37.887,-27.42 90.293,-64.49 128.185,-91.91 -65.685,-137.92 -109.462,-278.43 -133.411,-418.46 -16.656,-91.8 -25.399,-186.37 -25.399,-282.97 0,-869.94 705.22,-1575.16 1575.15,-1575.16"
         style="fill:#100f0d;fill-opacity:1;fill-rule:nonzero;stroke:none"
         id="path42" /></g></g></svg>
