<svg xmlns="http://www.w3.org/2000/svg" xmlns:xlink="http://www.w3.org/1999/xlink" version="1.1" id="Capa_1" x="0px" y="0px" viewBox="0 0 511.152 511.152" style="enable-background:new 0 0 511.152 511.152;" xml:space="preserve" width="512" height="512">
<g id="XMLID_40_">
	<path id="XMLID_120_" style="fill:#49525B;" d="M141.499,295.34c-1.591-3.754-4.643-6.697-8.45-8.154l-93.705-35.847   c-4.176-1.597-8.845-1.249-12.735,0.948c-3.892,2.198-6.601,6.017-7.389,10.416L0.802,365.511   c-0.048,0.256-0.093,0.511-0.137,0.767l-0.054,0.301c-0.055,0.309-0.1,0.618-0.136,0.927c-3.539,24.646,13.01,48.89,38.737,56.576   c5.471,1.635,11.001,2.415,16.426,2.415c20.087-0.001,38.681-10.713,46.997-28.463c0.14-0.278,0.272-0.563,0.396-0.853l0.12-0.279   c0.102-0.235,0.202-0.472,0.302-0.708l38.031-89.11C143.086,303.333,143.091,299.094,141.499,295.34z"/>
	<path id="XMLID_1208_" style="fill: #49525B;" d="M510.677,367.506c-0.035-0.309-0.081-0.618-0.136-0.928l-0.054-0.301   c-0.044-0.256-0.089-0.511-0.137-0.767l-18.418-102.808c-0.788-4.399-3.497-8.218-7.389-10.416   c-3.891-2.197-8.559-2.545-12.735-0.948l-93.705,35.847c-3.808,1.457-6.859,4.4-8.45,8.154c-1.592,3.754-1.587,7.993,0.014,11.743   l38.031,89.11c0.1,0.236,0.2,0.473,0.302,0.708l0.12,0.279c0.124,0.289,0.256,0.573,0.396,0.851   c8.316,17.752,26.908,28.465,46.997,28.465c5.423,0,10.957-0.781,16.426-2.415C497.667,416.394,514.216,392.151,510.677,367.506z"/>
	<path id="XMLID_56_" style="fill: #49525B;" d="M421.523,84.656h-26.619c-24.84,0-45.061,20.153-45.175,44.967l-0.272,10.745   c-0.21,8.281,6.333,15.166,14.614,15.376c7.682,0.188,14.098-5.378,15.201-12.753l57.426,8.688v2.269c0,8.284,6.716,15,15,15   s15-6.716,15-15v-24.117C466.698,104.922,446.432,84.656,421.523,84.656z"/>
	<path id="XMLID_61_" style="fill:#49525B;" d="M116.178,84.656H89.558c-24.91,0-45.176,20.266-45.176,45.176v24.117   c0,8.284,6.716,15,15,15s15-6.716,15-15v-2.276l57.156-8.675c1.088,7.215,7.296,12.751,14.813,12.751c8.284,0,15-6.716,15-15   v-10.917C161.352,104.922,141.087,84.656,116.178,84.656z"/>
	<path id="XMLID_52_" style="fill:#49525B;" d="M417.935,129.778c-2.826-2.576-6.717-4.029-10.781-4.029H103.998   c-4.06,0-7.946,1.45-10.772,4.021c-2.825,2.57-4.348,6.039-4.22,9.617l5.534,155.094c0.254,7.137,6.892,12.806,14.992,12.806   h291.769c8.09,0,14.723-5.656,14.991-12.782l5.854-155.094C422.281,135.83,420.762,132.354,417.935,129.778z"/>
	<path id="XMLID_1693_" style="fill: #49525B;" d="M417.935,129.778c-2.826-2.576-6.717-4.029-10.781-4.029H255.576v181.538h145.725   c8.09,0,14.723-5.656,14.991-12.782l5.854-155.094C422.281,135.83,420.762,132.354,417.935,129.778z"/>
	<path id="XMLID_51_" style="fill:#707789;" d="M103.998,125.749c-53.466,0-96.964,43.498-96.964,96.964   s43.498,96.964,96.964,96.964s96.964-43.498,96.964-96.964S157.464,125.749,103.998,125.749z"/>
	<path id="XMLID_64_" style="fill: #707789;" d="M407.154,125.749c-53.466,0-96.964,43.498-96.964,96.964   s43.498,96.964,96.964,96.964s96.964-43.498,96.964-96.964S460.62,125.749,407.154,125.749z"/>
	<path id="XMLID_42_" style="fill:#9CA2B5;" d="M183.908,263.46c-27.124,0-49.191,22.068-49.191,49.192s22.067,49.191,49.191,49.191   s49.191-22.067,49.191-49.191S211.032,263.46,183.908,263.46z"/>
	<path id="XMLID_41_" style="fill: #9CA2B5;" d="M326.896,263.23c-27.124,0-49.192,22.067-49.192,49.191   c0,27.124,22.068,49.191,49.192,49.191c27.124,0,49.191-22.067,49.191-49.191C376.087,285.297,354.02,263.23,326.896,263.23z"/>
	<path id="XMLID_55_" style="fill:#707789;" d="M261.365,223.155h-10.671c-8.284,0-15,6.716-15,15s6.716,15,15,15h10.671   c8.284,0,15-6.716,15-15S269.649,223.155,261.365,223.155z"/>
	<path id="XMLID_45_" style="fill:#707789;" d="M226.615,186.655h-0.249c-8.284,0-15,6.716-15,15s6.716,15,15,15h0.249   c8.284,0,15-6.716,15-15S234.899,186.655,226.615,186.655z"/>
	<path id="XMLID_54_" style="fill: #707789;" d="M285.331,186.655h-0.249c-8.284,0-15,6.716-15,15s6.716,15,15,15h0.249   c8.284,0,15-6.716,15-15S293.615,186.655,285.331,186.655z"/>
	<path id="XMLID_46_" style="fill:#FFD039;" d="M407.03,203.823h0.249c8.284,0,15-6.716,15-15s-6.716-15-15-15h-0.249   c-8.284,0-15,6.716-15,15S398.746,203.823,407.03,203.823z"/>
	<path id="XMLID_170_" style="fill:#2864F0;" d="M373.264,207.589c-8.284,0-15,6.716-15,15v0.249c0,8.284,6.716,15,15,15   s15-6.716,15-15v-0.249C388.264,214.304,381.549,207.589,373.264,207.589z"/>
	<path id="XMLID_1079_" style="fill:#5DC694;" d="M407.279,241.602h-0.249c-8.284,0-15,6.716-15,15s6.716,15,15,15h0.249   c8.284,0,15-6.716,15-15S415.563,241.602,407.279,241.602z"/>
	<path id="XMLID_44_" style="fill:#FF475A;" d="M441.044,207.589c-8.284,0-15,6.716-15,15v0.249c0,8.284,6.716,15,15,15   s15-6.716,15-15v-0.249C456.044,214.304,449.328,207.589,441.044,207.589z"/>
	<path id="XMLID_49_" style="fill:#49525B;" d="M124.248,207.713h-5.25v-5.25c0-8.284-6.716-15-15-15s-15,6.716-15,15v5.25h-5.25   c-8.284,0-15,6.716-15,15s6.716,15,15,15h5.25v5.25c0,8.284,6.716,15,15,15s15-6.716,15-15v-5.25h5.25c8.284,0,15-6.716,15-15   S132.532,207.713,124.248,207.713z"/>
	<path id="XMLID_1695_" style="fill: #707789;" d="M261.365,223.155h-5.789v30h5.789c8.284,0,15-6.716,15-15   S269.649,223.155,261.365,223.155z"/>
</g>
</svg>